<?xml version="1.0" standalone="no"?>
<!DOCTYPE svg PUBLIC "-//W3C//DTD SVG 20010904//EN"
 "http://www.w3.org/TR/2001/REC-SVG-20010904/DTD/svg10.dtd">
<svg version="1.0" xmlns="http://www.w3.org/2000/svg"
 width="1280.000000pt" height="1008.000000pt" viewBox="0 0 1280.000000 1008.000000"
 preserveAspectRatio="xMidYMid meet">
<metadata>
Created by potrace 1.15, written by Peter Selinger 2001-2017
</metadata>
<g transform="translate(0.000000,1008.000000) scale(0.100000,-0.100000)"
fill="#000000" stroke="none">
<path d="M8887 10062 c-10 -11 -23 -56 -31 -113 -8 -52 -28 -130 -46 -173 -40
-100 -64 -206 -86 -370 -14 -110 -15 -149 -5 -260 6 -72 11 -154 11 -182 0
-28 9 -85 19 -126 18 -69 18 -81 5 -130 -21 -81 -18 -100 35 -200 27 -51 58
-127 70 -168 11 -41 32 -110 46 -154 l25 -78 -21 -29 c-19 -27 -19 -30 -4 -60
19 -35 284 -305 330 -335 l29 -19 -29 -6 c-22 -4 -44 2 -82 23 -29 15 -66 28
-82 28 l-30 0 19 -55 c47 -137 146 -215 273 -215 87 0 102 -6 122 -50 21 -47
14 -60 -33 -60 l-37 -1 35 -29 c46 -39 127 -80 159 -80 13 0 32 -6 40 -13 9
-8 88 -58 176 -113 88 -54 208 -131 267 -170 112 -77 151 -90 224 -80 24 3 44
4 44 2 0 -2 13 -54 29 -117 29 -117 58 -337 48 -363 -11 -29 -86 -58 -131 -52
-121 18 -333 26 -381 15 -115 -27 -278 -127 -311 -190 -16 -32 -16 -50 2 -163
4 -21 1 -63 -5 -92 -15 -67 -9 -88 32 -105 115 -49 302 33 324 141 l8 40 47
-25 c26 -14 59 -25 73 -25 40 0 132 49 185 100 49 46 59 67 84 189 12 59 30
77 67 68 23 -6 25 -15 67 -279 45 -289 53 -413 28 -473 -13 -30 -23 -36 -82
-55 -123 -38 -190 -44 -341 -31 -269 23 -840 92 -1008 122 -280 51 -505 110
-505 134 0 8 7 63 16 122 11 71 21 111 32 119 9 7 40 9 83 6 51 -3 84 1 140
18 63 19 81 30 134 83 53 54 66 74 93 150 38 104 40 142 11 173 -19 21 -25 53
-50 303 -16 154 -35 306 -43 338 -10 38 -14 97 -13 174 1 76 -2 121 -10 130
-17 21 -53 171 -53 222 0 24 -12 78 -26 118 -29 83 -31 100 -20 182 8 55 7 59
-10 55 -13 -2 -39 -43 -81 -128 -69 -139 -178 -285 -259 -347 -26 -21 -89 -58
-139 -83 -77 -39 -93 -51 -110 -86 -35 -71 -85 -145 -130 -193 -24 -26 -49
-59 -55 -75 -5 -15 -14 -118 -20 -229 l-10 -202 31 -150 c19 -91 40 -166 55
-191 13 -23 58 -73 101 -111 64 -58 92 -75 155 -98 118 -42 113 -32 80 -160
l-28 -109 -44 -15 c-77 -25 -415 -21 -576 7 -106 18 -183 23 -405 27 -547 9
-963 58 -1001 118 -4 7 -26 70 -49 141 -48 151 -49 143 50 249 36 37 86 105
111 150 26 45 72 121 103 170 77 122 157 327 157 404 -1 94 -33 160 -125 258
-41 45 -42 45 -110 45 -59 0 -75 -4 -108 -27 l-40 -28 -94 100 c-68 73 -93
105 -89 119 3 11 -5 44 -18 75 -13 31 -36 94 -51 141 -15 47 -30 89 -33 94
-11 20 -34 -51 -41 -128 -4 -45 -13 -91 -19 -102 -10 -18 -11 -17 -21 9 -6 16
-11 32 -11 37 0 5 -11 45 -25 89 -28 89 -55 126 -124 174 -38 26 -56 32 -101
32 -69 0 -106 23 -300 179 -139 112 -184 138 -260 151 -25 4 -66 18 -92 31
-25 13 -88 33 -139 44 -51 11 -112 29 -136 41 -24 12 -59 25 -76 29 -18 5
-111 38 -207 75 l-175 68 -269 7 c-149 4 -282 6 -296 3 -15 -2 -78 5 -140 17
-128 23 -166 25 -175 9 -7 -11 12 -41 146 -226 97 -133 193 -300 238 -416 63
-159 86 -195 219 -349 25 -29 42 -59 42 -73 0 -14 7 -42 16 -62 16 -40 49 -66
201 -155 45 -27 85 -57 88 -68 3 -10 3 -35 0 -54 -9 -44 15 -80 88 -132 28
-21 86 -72 127 -114 118 -119 217 -203 268 -227 81 -38 160 -104 173 -143 15
-47 46 -98 80 -135 15 -16 35 -46 43 -67 18 -42 52 -72 102 -88 38 -13 126 4
318 61 71 21 120 29 174 29 42 0 113 7 160 16 46 8 85 14 87 12 1 -2 23 -39
48 -84 37 -65 51 -104 71 -203 15 -68 31 -131 36 -142 9 -16 5 -22 -22 -39
-18 -11 -49 -23 -68 -27 -51 -11 -908 -8 -955 3 -35 9 -40 13 -43 42 -2 18 9
111 23 207 l27 173 -21 58 c-12 31 -33 70 -46 86 -14 16 -30 47 -36 69 -14 44
-61 91 -118 117 -20 9 -42 23 -49 30 -28 25 -60 13 -120 -46 -64 -62 -91 -107
-116 -193 -36 -122 -41 -165 -24 -191 8 -13 23 -48 33 -78 23 -70 100 -149
170 -175 148 -54 160 -60 160 -80 0 -35 -62 -47 -272 -53 -169 -4 -196 -3
-218 12 -37 25 -61 85 -86 221 -35 191 -68 247 -244 422 -81 80 -155 145 -170
149 -14 4 -49 2 -78 -4 -43 -9 -70 -8 -157 10 -88 18 -112 19 -147 9 -62 -17
-107 -69 -132 -151 l-21 -68 25 -86 c32 -112 29 -119 -49 -111 -186 20 -298
38 -351 54 -65 21 -101 25 -387 46 -193 14 -226 11 -293 -22 -16 -9 -39 -24
-50 -34 -11 -10 -58 -30 -105 -45 -156 -49 -190 -64 -190 -84 0 -22 28 -40 60
-40 36 0 17 -24 -31 -38 -118 -36 -281 -101 -352 -141 -77 -44 -107 -77 -107
-119 0 -25 -33 -53 -105 -91 -33 -17 -85 -49 -115 -71 -51 -37 -123 -70 -244
-115 -37 -13 -51 -25 -62 -50 -7 -18 -51 -66 -96 -106 -46 -41 -123 -117 -173
-169 -49 -52 -171 -178 -270 -280 -100 -102 -216 -229 -259 -282 -64 -80 -94
-107 -169 -156 -51 -33 -99 -68 -108 -78 -31 -36 -71 -113 -64 -125 14 -21 90
-49 138 -49 31 0 64 9 97 25 27 14 65 25 83 25 19 0 59 9 91 20 33 11 99 22
159 25 56 4 172 16 257 27 141 20 170 21 320 11 106 -7 224 -8 330 -3 91 5
228 12 305 15 77 4 167 14 200 22 46 11 131 15 355 17 l294 1 55 -47 c30 -27
59 -48 65 -49 64 -7 133 20 256 100 46 30 144 55 225 57 44 1 117 5 163 9 82
7 82 7 82 -17 0 -13 6 -33 14 -44 14 -19 16 -18 132 11 103 26 130 37 228 98
61 38 152 88 201 112 50 23 111 58 138 78 30 24 58 37 78 37 24 0 45 14 101
70 40 38 78 72 85 75 8 2 27 33 43 68 23 51 46 80 119 146 70 64 98 97 122
147 29 59 31 69 27 146 -4 64 -11 95 -31 135 -34 66 -34 91 1 129 l27 30 327
14 c385 15 378 17 319 -63 -60 -81 -81 -129 -81 -190 0 -59 22 -100 103 -192
41 -46 46 -49 73 -40 15 6 47 35 70 65 l43 55 -24 127 c-13 69 -28 135 -34
146 -6 12 -11 39 -11 62 l0 42 238 -4 c227 -4 239 -5 287 -29 70 -34 71 -57 4
-184 -120 -228 -328 -544 -359 -545 -8 0 -38 15 -65 33 -111 75 -247 102 -368
73 -116 -27 -210 -84 -243 -148 -8 -15 -33 -35 -58 -47 -24 -10 -54 -33 -67
-50 -13 -17 -57 -54 -98 -83 -42 -28 -88 -62 -103 -76 -14 -13 -68 -52 -120
-86 -83 -55 -93 -64 -96 -94 -2 -19 4 -54 12 -79 13 -39 14 -49 2 -72 -16 -30
-75 -87 -125 -121 -18 -13 -53 -50 -78 -84 -43 -58 -44 -63 -38 -111 16 -121
12 -157 -21 -205 -53 -77 -93 -166 -111 -247 -10 -50 -24 -87 -39 -103 -38
-41 -46 -76 -34 -137 10 -45 9 -68 -5 -131 -25 -109 -14 -286 21 -351 13 -25
24 -53 24 -62 0 -9 23 -70 52 -135 55 -128 54 -119 58 -380 0 -16 6 -39 14
-49 13 -18 15 -18 52 10 22 16 80 70 129 120 52 53 109 100 135 112 25 12 103
48 174 82 71 34 139 61 150 61 38 0 125 50 165 96 21 24 46 44 54 44 9 0 37
29 62 65 49 68 88 102 133 115 28 7 29 10 18 46 -6 19 -2 22 37 28 31 5 52 16
76 41 37 40 57 44 66 14 4 -11 12 -18 18 -16 15 5 105 155 172 288 56 110 85
224 85 332 0 26 3 47 6 47 4 0 29 -20 55 -45 26 -25 54 -45 61 -45 58 0 120
97 176 274 28 90 36 136 44 246 13 192 18 240 28 240 4 0 42 -16 84 -36 108
-50 118 -47 193 60 l63 89 0 134 c0 143 5 161 51 204 36 35 45 86 30 174 -7
39 -17 98 -22 133 -11 76 -26 106 -76 153 -50 48 -91 68 -193 94 -56 14 -86
26 -88 37 -4 18 130 193 160 209 35 19 378 14 693 -11 154 -12 311 -21 350
-21 103 1 134 -7 141 -36 8 -32 -18 -60 -70 -74 -57 -14 -139 -45 -186 -69
-62 -32 -143 -151 -170 -249 -12 -47 -15 -163 -4 -206 l7 -27 76 7 c108 11
145 7 209 -21 73 -32 122 -70 122 -95 0 -13 17 -30 50 -51 28 -17 50 -35 50
-39 0 -16 58 -39 79 -31 11 4 47 33 79 64 75 71 102 135 109 260 6 94 -10 174
-49 253 -12 22 -67 86 -124 142 -99 97 -104 103 -92 127 13 31 -4 30 288 11
220 -15 470 -46 660 -84 95 -18 219 -63 232 -85 4 -6 8 -61 8 -123 0 -141 -11
-158 -110 -177 -46 -9 -84 -25 -131 -56 -73 -48 -100 -83 -208 -274 -34 -61
-79 -130 -100 -155 -82 -98 -94 -173 -40 -254 32 -49 83 -97 102 -97 14 0 66
-165 74 -236 4 -39 0 -68 -20 -125 -14 -41 -28 -90 -31 -109 -7 -33 -6 -34 9
-15 9 11 19 25 23 31 4 6 54 18 112 28 58 9 125 26 150 38 51 24 217 190 308
307 81 106 107 131 135 131 18 0 27 8 35 28 22 61 42 207 42 317 0 104 -3 121
-25 165 -14 27 -25 57 -25 66 0 26 -106 139 -154 165 -52 27 -66 52 -66 117 0
51 25 216 35 232 8 13 153 4 335 -21 289 -40 653 -99 708 -115 70 -20 199 -90
212 -114 28 -53 -3 -297 -80 -618 -46 -189 -58 -210 -128 -219 -36 -5 -45 -1
-103 45 -41 31 -85 55 -121 66 -47 13 -65 25 -100 67 -32 38 -63 61 -127 92
-47 22 -117 60 -156 84 -59 37 -147 73 -177 73 -4 0 -8 -39 -8 -86 0 -48 -9
-141 -21 -207 l-20 -120 43 -44 c49 -51 211 -134 296 -152 66 -14 222 -14 257
-1 15 6 57 35 94 66 l66 56 58 -5 c32 -3 61 -7 63 -10 8 -8 -102 -331 -134
-392 -49 -95 -43 -92 -101 -52 -94 65 -198 86 -309 63 -88 -18 -189 -70 -262
-135 -53 -47 -54 -49 -41 -74 13 -25 11 -29 -50 -97 -34 -39 -97 -95 -139
-124 -84 -59 -121 -97 -177 -183 -39 -61 -69 -163 -50 -174 5 -4 39 -10 74
-14 46 -5 66 -12 73 -25 8 -15 2 -23 -33 -46 -23 -16 -54 -35 -69 -44 -60 -33
-160 -144 -198 -220 -21 -41 -47 -83 -59 -94 -32 -29 -44 -78 -31 -125 8 -32
19 -45 59 -68 l48 -28 -13 -61 c-6 -33 -30 -96 -51 -140 -41 -83 -43 -96 -23
-184 13 -54 12 -58 -29 -175 -23 -66 -52 -141 -66 -166 -13 -25 -27 -65 -30
-90 -10 -77 -36 -252 -46 -310 -7 -43 -5 -96 10 -220 11 -90 22 -204 26 -252
8 -100 77 -392 99 -416 8 -9 34 -57 58 -107 24 -50 56 -105 71 -123 15 -18 27
-38 27 -45 0 -11 32 -45 72 -75 15 -11 20 -7 41 36 14 26 53 117 88 202 l63
154 119 136 c65 75 128 154 139 175 11 21 60 85 109 141 49 56 89 107 89 114
0 6 4 11 9 11 5 0 21 21 36 47 15 27 63 83 107 125 l80 78 12 95 c10 78 18
103 42 138 32 45 32 45 144 36 l45 -4 12 45 c6 25 12 84 12 131 1 74 5 96 32
155 17 38 37 76 44 84 9 10 14 56 17 140 2 100 7 132 21 153 22 34 32 34 67
-3 36 -39 86 -59 151 -62 59 -3 67 4 100 91 22 59 28 116 36 353 l4 146 29
-12 c16 -6 39 -24 50 -39 18 -23 29 -28 59 -25 34 3 38 7 74 82 78 160 72 314
-23 621 -22 68 -98 197 -166 281 -29 35 -43 64 -31 64 2 0 38 -20 81 -44 83
-47 138 -61 207 -50 61 9 78 20 95 61 14 32 13 41 -6 107 -12 39 -31 83 -41
98 -30 42 -117 78 -186 78 -71 0 -91 13 -131 83 -34 59 -99 123 -136 133 -55
13 -51 104 17 394 30 129 67 294 81 365 15 72 29 140 32 152 2 13 18 38 35 58
27 30 37 35 75 35 24 0 63 -6 86 -14 24 -8 75 -19 113 -25 72 -11 894 -217
1185 -297 91 -25 212 -63 270 -84 130 -48 186 -60 177 -37 -3 9 1 17 12 20 15
4 17 13 13 59 -4 49 -2 57 19 72 22 15 25 15 54 -14 62 -60 151 -53 227 18 85
79 109 117 124 190 7 37 28 103 48 147 l35 80 -82 3 c-137 6 -245 -29 -348
-109 -86 -69 -111 -138 -69 -192 l20 -25 -35 -31 c-20 -17 -38 -31 -41 -31 -2
0 -26 11 -52 24 -63 31 -209 79 -225 73 -6 -2 -21 3 -32 12 -11 10 -60 25
-109 35 -49 10 -117 27 -150 38 -34 11 -92 26 -131 33 -38 7 -92 20 -120 28
-27 9 -97 29 -155 46 -240 69 -366 111 -468 155 -129 56 -138 67 -147 201 -4
50 -28 245 -55 435 -59 421 -57 398 -41 438 10 24 18 31 30 26 9 -3 50 -9 91
-11 76 -5 79 -4 245 53 68 23 72 27 78 80 2 25 10 51 16 57 6 6 69 14 145 18
165 8 187 13 219 47 24 25 107 205 122 263 12 47 -47 74 -200 94 -201 27 -355
17 -450 -28 -27 -14 -72 -35 -98 -47 -56 -27 -152 -126 -178 -185 -12 -26 -19
-64 -19 -110 0 -46 -6 -77 -16 -90 -15 -20 -15 -20 -34 5 -28 37 -46 129 -41
211 0 16 25 53 66 100 80 91 136 196 170 320 15 52 46 159 71 237 24 79 44
160 44 181 0 20 6 45 14 56 7 11 30 67 50 125 62 177 60 157 17 201 -34 33
-42 50 -61 130 -12 51 -33 115 -47 143 -31 63 -179 216 -208 216 -16 0 -39
-27 -91 -105 -67 -102 -69 -104 -82 -80 -7 13 -19 59 -28 102 -9 43 -24 107
-34 143 -10 36 -22 88 -26 115 -7 49 -44 138 -63 150 -6 3 -28 -6 -50 -20 -23
-14 -44 -25 -49 -25 -17 0 -43 39 -72 106 -28 67 -30 69 -77 81 -62 16 -91 50
-151 176 -38 78 -51 97 -69 97 -28 0 -99 57 -207 170 -49 50 -105 103 -125
116 -20 13 -79 75 -131 136 -131 154 -385 408 -408 408 -10 0 -26 -8 -35 -18z
m1286 -6062 c19 -31 31 -37 42 -20 4 6 11 7 17 4 7 -4 3 -11 -9 -18 -20 -11
-19 -14 23 -111 43 -100 47 -118 20 -96 -20 16 -105 169 -111 198 -3 13 -7 34
-10 48 -7 34 7 31 28 -5z"/>
</g>
</svg>
