<?xml version="1.0" ?><!DOCTYPE svg  PUBLIC '-//W3C//DTD SVG 1.1//EN'  'http://www.w3.org/Graphics/SVG/1.1/DTD/svg11.dtd'><svg width="3.63px" height="3.63px" viewBox="-0.24 0 3.63 3.63" style="shape-rendering:geometricPrecision; text-rendering:geometricPrecision; image-rendering:optimizeQuality; fill-rule:evenodd; clip-rule:evenodd" version="1.1" xml:space="preserve" xmlns="http://www.w3.org/2000/svg" xmlns:xlink="http://www.w3.org/1999/xlink"><defs><style type="text/css">
   <![CDATA[
    .fil0 {fill:black;fill-rule:nonzero}
   ]]>
  </style></defs><g id="Layer_x0020_1"><path class="fil0" d="M0.6 0.35l0.8 0 0 -0.35 0.34 0 0 0.35 0.8 0c0.16,0 0.31,0.06 0.42,0.17l0 0c0.11,0.11 0.18,0.26 0.18,0.43l0 1.31c0,0.17 -0.07,0.32 -0.18,0.43 -0.11,0.11 -0.26,0.18 -0.42,0.18l-0.64 0 0.67 0.76 -0.45 0 -0.38 -0.44 0 0.44 -0.34 0 0 -0.44 -0.38 0.44 -0.45 0 0.67 -0.76 -0.64 0c-0.16,0 -0.31,-0.07 -0.42,-0.18 -0.11,-0.11 -0.18,-0.26 -0.18,-0.43l0 -1.31c0,-0.17 0.07,-0.32 0.18,-0.43l0 0c0.11,-0.11 0.26,-0.17 0.42,-0.17zm1.94 0.33l-1.94 0c-0.07,0 -0.14,0.03 -0.19,0.08l0 0c-0.04,0.05 -0.07,0.11 -0.07,0.19l0 1.31c0,0.08 0.03,0.14 0.07,0.19 0.05,0.05 0.12,0.08 0.19,0.08l1.94 0c0.07,0 0.14,-0.03 0.19,-0.08 0.04,-0.05 0.07,-0.11 0.07,-0.19l0 -1.31c0,-0.08 -0.03,-0.14 -0.07,-0.19 -0.05,-0.05 -0.12,-0.08 -0.19,-0.08z"/></g></svg>