<?xml version="1.0" standalone="no"?>
<!DOCTYPE svg PUBLIC "-//W3C//DTD SVG 20010904//EN"
 "http://www.w3.org/TR/2001/REC-SVG-20010904/DTD/svg10.dtd">
<svg version="1.0" xmlns="http://www.w3.org/2000/svg"
 width="1280.000000pt" height="1122.000000pt" viewBox="0 0 1280.000000 1122.000000"
 preserveAspectRatio="xMidYMid meet">
<metadata>
Created by potrace 1.15, written by Peter Selinger 2001-2017
</metadata>
<g transform="translate(0.000000,1122.000000) scale(0.100000,-0.100000)"
fill="#000000" stroke="none">
<path d="M9148 10995 c-3 -3 -53 -11 -111 -16 -140 -12 -242 -43 -464 -143
-104 -46 -214 -93 -246 -105 -122 -45 -249 -123 -367 -225 -127 -110 -156
-133 -240 -191 -192 -132 -276 -211 -764 -710 -437 -448 -535 -561 -659 -763
-97 -156 -149 -226 -317 -416 -72 -82 -141 -168 -152 -190 -11 -23 -42 -66
-67 -96 -69 -81 -162 -206 -204 -275 -20 -33 -72 -101 -115 -151 -43 -50 -94
-117 -112 -150 -35 -61 -79 -122 -192 -263 -37 -46 -76 -102 -87 -126 -11 -24
-42 -69 -69 -102 -56 -67 -96 -128 -130 -197 -23 -48 -125 -199 -177 -262 -14
-18 -32 -49 -41 -70 -9 -21 -33 -58 -54 -82 -21 -24 -63 -94 -93 -155 -30 -62
-74 -134 -98 -162 -25 -27 -65 -81 -91 -120 -25 -38 -61 -83 -78 -100 -18 -16
-52 -64 -76 -107 -25 -42 -51 -78 -58 -81 -25 -10 -66 -73 -91 -143 -38 -105
-82 -161 -300 -384 -111 -113 -230 -239 -265 -280 -35 -41 -112 -127 -170
-190 -59 -63 -148 -170 -199 -238 -108 -144 -267 -336 -363 -440 -38 -40 -68
-79 -68 -87 0 -7 -36 -52 -80 -100 -76 -84 -109 -129 -180 -243 -18 -28 -85
-108 -149 -177 -82 -87 -135 -154 -175 -222 -32 -54 -100 -150 -151 -213 -51
-63 -105 -137 -120 -165 -39 -68 -75 -113 -174 -220 -46 -49 -104 -117 -128
-150 -24 -33 -64 -77 -89 -98 -59 -51 -117 -135 -199 -287 -88 -163 -141 -236
-220 -306 -40 -36 -73 -75 -86 -103 -11 -25 -25 -55 -31 -66 -5 -11 -27 -32
-48 -47 -29 -20 -44 -41 -60 -86 -16 -43 -36 -73 -72 -107 -34 -32 -61 -71
-85 -122 -19 -41 -56 -108 -83 -149 -72 -110 -94 -173 -94 -269 -1 -70 3 -86
26 -126 47 -81 132 -135 256 -165 233 -55 401 41 694 398 72 87 157 184 190
216 34 33 72 82 88 114 16 32 46 78 67 104 50 60 271 257 353 316 36 25 155
135 266 244 298 296 503 478 613 547 33 21 84 59 113 85 29 27 75 61 101 76
26 15 70 47 97 71 26 23 93 74 147 113 54 38 127 96 163 129 36 33 90 76 122
96 31 21 74 58 97 82 22 24 54 51 71 60 16 8 58 40 92 71 35 31 80 65 101 76
22 11 58 36 80 57 60 54 117 95 117 84 0 -35 -50 -145 -90 -197 -59 -77 -94
-146 -131 -254 -15 -46 -40 -97 -54 -114 -14 -17 -40 -58 -57 -92 -17 -34 -43
-79 -58 -102 -16 -22 -40 -69 -54 -104 -15 -36 -39 -78 -55 -95 -44 -46 -122
-182 -143 -248 -62 -201 37 -391 225 -428 72 -15 168 6 242 53 28 17 70 42 95
56 25 13 68 45 95 71 28 26 68 58 90 71 48 28 212 159 310 245 39 35 202 175
364 313 l294 250 44 -19 c105 -45 224 -10 420 124 51 35 78 47 92 42 11 -3 57
-49 102 -101 44 -52 89 -100 98 -107 10 -6 31 -37 47 -66 16 -30 79 -107 139
-171 118 -124 247 -280 285 -345 13 -22 48 -65 78 -95 29 -30 130 -152 223
-270 92 -118 184 -234 204 -257 l36 -42 -38 -20 c-21 -10 -51 -33 -68 -51 -16
-18 -47 -40 -67 -51 -36 -18 -158 -149 -158 -170 0 -5 -24 -45 -54 -88 -98
-144 -159 -343 -160 -526 -1 -130 6 -147 98 -243 77 -81 140 -114 216 -114
142 0 237 91 371 355 39 78 79 150 88 161 9 10 25 37 36 60 24 49 55 66 188
101 171 46 266 29 490 -88 126 -65 176 -107 239 -201 42 -61 106 -191 128
-261 49 -153 140 -228 280 -228 156 -1 279 116 296 280 7 67 -5 137 -47 273
-16 52 -36 138 -45 190 -20 124 -57 233 -99 296 -19 28 -35 55 -35 62 0 6 -21
38 -47 71 -27 34 -60 79 -76 101 -31 47 -119 106 -262 178 -140 69 -247 101
-384 113 -63 6 -126 16 -140 24 -33 17 -66 53 -124 136 -26 36 -72 94 -103
129 -31 34 -70 92 -87 127 -17 36 -43 74 -58 85 -15 12 -33 35 -40 52 -7 17
-27 51 -44 76 -18 25 -42 63 -53 86 -11 22 -41 63 -66 91 -25 28 -55 72 -66
97 -28 67 -66 119 -162 221 -90 96 -137 159 -161 216 -8 20 -30 49 -49 65 -19
16 -42 48 -51 71 -16 41 -16 42 4 48 31 10 260 8 379 -4 58 -5 164 -13 235
-16 133 -6 210 -22 277 -56 l38 -19 -51 -63 c-94 -115 -125 -204 -154 -437
-20 -160 -14 -199 41 -260 43 -47 89 -64 174 -63 128 2 273 79 323 172 31 55
69 92 131 123 22 11 53 31 67 44 36 34 118 46 222 33 141 -17 214 -64 334
-212 285 -353 270 -342 463 -341 108 0 131 3 165 21 74 39 124 113 140 208 5
27 20 53 46 80 51 54 71 105 71 184 0 119 -60 230 -216 400 -43 47 -92 107
-110 135 -42 66 -44 68 -167 122 -257 113 -412 169 -549 195 -171 33 -169 28
-43 112 60 39 128 83 152 97 357 210 891 669 1025 881 35 56 66 90 120 131 43
34 79 71 91 94 11 22 37 58 57 81 20 22 46 59 57 80 11 22 26 45 35 52 8 7 18
26 21 42 4 16 11 31 16 35 13 8 139 260 139 277 0 8 13 32 29 54 38 52 64 106
80 163 7 25 30 81 52 125 22 44 46 110 54 146 7 36 32 103 54 148 93 183 117
265 161 532 36 220 54 301 80 371 36 98 50 187 65 406 8 119 17 235 20 257 58
488 147 900 237 1100 70 155 95 171 328 201 63 8 138 21 165 29 28 7 79 19
115 25 131 23 418 124 495 175 107 72 165 163 165 261 0 76 -27 123 -104 186
-121 97 -274 155 -536 202 -152 28 -396 82 -443 99 -15 5 -58 44 -94 86 -73
83 -90 101 -215 236 -242 262 -378 373 -573 470 -60 30 -153 67 -205 82 -52
14 -104 32 -115 39 -70 45 -231 95 -390 121 -96 15 -585 30 -597 18z"/>
</g>
</svg>
