<?xml version="1.0" standalone="no"?>
<!DOCTYPE svg PUBLIC "-//W3C//DTD SVG 20010904//EN"
 "http://www.w3.org/TR/2001/REC-SVG-20010904/DTD/svg10.dtd">
<svg version="1.0" xmlns="http://www.w3.org/2000/svg"
 width="1278.000000pt" height="1280.000000pt" viewBox="0 0 1278.000000 1280.000000"
 preserveAspectRatio="xMidYMid meet">
<metadata>
Created by potrace 1.15, written by Peter Selinger 2001-2017
</metadata>
<g transform="translate(0.000000,1280.000000) scale(0.100000,-0.100000)"
fill="#000000" stroke="none">
<path d="M3366 12792 c-3 -6 3 -12 15 -15 12 -3 19 -1 16 6 -5 15 -24 20 -31
9z"/>
<path d="M3423 12733 c-10 -4 -9 -8 1 -19 16 -16 36 -19 36 -5 0 14 -24 29
-37 24z"/>
<path d="M7241 12484 c-23 -26 -41 -51 -41 -57 0 -25 -84 -137 -131 -175 -65
-53 -93 -54 -155 -7 -41 31 -52 35 -108 35 -70 0 -163 -21 -204 -47 -15 -9
-53 -38 -84 -65 -31 -26 -59 -48 -62 -48 -12 0 -112 -74 -154 -114 -48 -45
-169 -193 -221 -269 -126 -185 -324 -718 -355 -952 -2 -16 -12 -84 -21 -150
-14 -100 -16 -154 -9 -325 11 -280 9 -360 -6 -370 -23 -15 -35 -1 -74 88 -21
48 -57 117 -81 153 -24 36 -57 93 -73 126 -17 32 -50 81 -74 108 -74 84 -103
126 -154 220 -26 50 -68 122 -92 160 -54 85 -239 269 -383 380 -107 83 -163
136 -237 224 -24 28 -87 87 -140 131 -101 85 -155 110 -238 110 -73 0 -109
-24 -149 -102 -32 -59 -40 -68 -64 -68 -16 0 -45 11 -65 25 -20 14 -41 25 -46
25 -5 0 -72 60 -148 134 -77 74 -148 137 -160 140 -13 5 -36 -3 -68 -24 -57
-36 -99 -38 -156 -9 -59 30 -123 22 -229 -31 -104 -51 -115 -61 -146 -130 -14
-30 -33 -59 -42 -65 -46 -28 -117 -47 -216 -56 -197 -19 -207 -23 -251 -114
-30 -60 -51 -71 -182 -101 -99 -22 -122 -42 -122 -105 0 -27 -7 -66 -15 -87
-21 -48 -88 -117 -147 -149 -75 -41 -80 -54 -82 -222 -3 -194 -10 -204 -124
-194 l-59 5 -31 -50 c-52 -85 -93 -201 -122 -345 -10 -49 -9 -68 8 -135 16
-63 19 -99 14 -200 -4 -97 -1 -137 13 -190 38 -145 77 -236 180 -415 30 -52
28 -72 -7 -79 -13 -3 -57 -15 -98 -26 -41 -11 -95 -23 -120 -27 -64 -10 -102
-28 -205 -94 -123 -80 -168 -101 -212 -101 -21 0 -56 -9 -78 -19 -48 -22 -112
-90 -120 -128 -4 -16 -14 -45 -23 -66 -9 -21 -15 -55 -14 -76 3 -47 -22 -71
-102 -95 -83 -25 -198 -79 -219 -103 -10 -11 -33 -51 -52 -89 -31 -62 -35 -77
-35 -152 0 -116 -19 -149 -173 -299 -69 -68 -130 -123 -136 -123 -6 0 -16 -10
-22 -23 -8 -18 -4 -35 21 -89 41 -91 42 -193 4 -283 -38 -88 -38 -90 -19 -147
22 -66 23 -132 3 -155 -29 -33 -78 -136 -78 -163 0 -15 7 -47 15 -70 19 -53
19 -93 0 -148 -14 -40 -14 -45 4 -71 33 -46 117 -119 156 -135 20 -9 60 -36
88 -62 28 -25 86 -66 129 -91 123 -71 145 -116 88 -183 -17 -19 -30 -46 -30
-61 0 -52 57 -142 138 -220 139 -133 335 -293 424 -347 20 -13 38 -26 40 -30
9 -21 201 -168 252 -194 68 -34 126 -74 126 -88 0 -19 -54 -71 -103 -100 -29
-17 -59 -35 -67 -40 -8 -5 -32 -16 -52 -26 -32 -13 -49 -36 -110 -138 -50 -82
-95 -143 -143 -191 -71 -71 -195 -169 -250 -198 -48 -25 -154 -126 -175 -167
-40 -79 -34 -174 14 -219 31 -29 137 -54 198 -46 40 6 48 4 57 -14 8 -14 8
-28 0 -48 -39 -104 -56 -334 -41 -590 10 -182 18 -203 77 -203 30 0 74 -25
103 -60 7 -8 29 -46 48 -84 60 -115 133 -202 221 -264 58 -40 126 -72 165 -79
22 -3 49 -13 60 -23 l21 -17 -26 -55 c-15 -30 -31 -75 -36 -99 -14 -58 -14
-185 -1 -210 11 -20 68 -52 111 -62 14 -4 39 -26 58 -53 55 -76 76 -84 225
-84 l128 0 40 -45 c60 -68 115 -57 211 41 l52 54 50 -6 c58 -8 96 -20 93 -31
-5 -20 17 -83 47 -138 51 -92 109 -138 211 -168 45 -13 62 -13 130 -1 44 7
116 27 161 43 l82 30 76 -24 c42 -14 93 -25 113 -25 42 0 165 59 285 137 160
102 183 118 234 165 52 47 87 60 95 36 5 -14 1 -36 -35 -198 -14 -63 -28 -146
-31 -185 -3 -38 -9 -104 -13 -145 -19 -191 1 -458 41 -554 26 -63 76 -126 116
-146 22 -11 68 -23 102 -26 35 -3 74 -14 88 -23 14 -10 53 -28 87 -40 54 -20
67 -22 93 -11 39 16 74 6 88 -25 8 -17 12 -90 12 -206 0 -206 3 -216 81 -291
45 -43 122 -78 171 -78 21 0 92 36 108 54 7 9 18 16 25 16 8 0 15 4 17 9 2 4
13 11 25 15 18 6 25 1 37 -22 18 -34 78 -98 156 -164 52 -44 189 -118 217
-118 7 0 23 10 35 23 13 12 40 37 62 55 37 31 44 33 110 32 51 -2 87 4 130 20
63 23 72 22 206 -16 38 -10 75 -13 121 -9 68 7 125 -6 230 -54 l47 -21 64 20
c35 10 106 30 158 44 121 32 344 140 395 193 21 21 46 57 55 79 24 54 36 61
69 37 63 -48 151 -48 248 -1 224 108 262 174 408 700 20 70 30 72 99 19 122
-93 201 -128 406 -176 41 -10 80 -22 85 -26 6 -4 33 -15 60 -25 28 -9 61 -24
75 -34 14 -10 59 -28 100 -40 41 -13 84 -29 95 -37 27 -18 52 -16 89 6 75 46
211 65 252 36 12 -8 39 -19 60 -24 22 -5 57 -15 79 -20 22 -6 61 -11 86 -11
25 0 72 -9 104 -20 32 -11 63 -20 70 -20 6 0 26 47 45 105 18 58 41 117 52
131 25 31 71 54 178 89 l85 27 142 -12 c211 -19 224 -9 216 150 -5 83 5 210
22 289 9 44 30 55 106 57 95 1 103 10 108 122 10 249 -2 436 -43 647 -21 104
-21 105 12 105 19 0 23 3 13 9 -10 6 -4 11 20 15 85 16 121 31 158 63 45 38
53 60 72 194 13 92 5 142 -42 276 -20 58 -26 75 -36 123 -4 13 -30 87 -60 165
-73 189 -73 185 -33 185 17 0 84 -16 148 -36 64 -19 131 -35 147 -36 17 0 44
-4 60 -9 17 -5 84 -14 150 -19 66 -5 127 -10 135 -11 8 -1 52 -10 98 -20 45
-11 112 -19 147 -19 70 0 183 21 236 44 62 26 113 35 229 40 125 5 255 39 297
78 11 11 42 55 67 98 59 99 60 134 10 209 -20 29 -32 57 -27 61 4 5 55 16 112
25 108 18 191 48 247 90 30 23 46 53 58 107 3 14 18 40 32 57 29 35 29 57 0
166 -28 103 -8 147 74 160 65 11 121 38 156 76 85 94 114 158 114 250 0 59
-12 98 -84 271 -27 66 -36 102 -36 145 0 66 8 81 92 165 66 67 85 112 68 162
-6 18 -20 42 -31 52 -11 10 -27 33 -36 52 -20 42 -53 67 -178 132 -55 28 -119
70 -143 93 -44 42 -78 94 -68 104 5 5 45 10 103 12 18 1 45 12 63 28 31 26 32
28 28 102 -5 108 -53 208 -149 306 -58 61 -90 83 -187 133 -64 33 -133 65
-152 70 -19 6 -55 18 -79 27 -25 9 -83 21 -130 26 -47 6 -120 22 -161 36 -70
24 -148 37 -375 63 -110 13 -270 51 -269 65 0 6 48 35 105 66 321 171 553 345
587 441 8 24 59 83 146 170 73 74 144 154 159 179 36 61 54 150 61 302 6 144
0 169 -54 207 -39 28 -38 45 5 84 69 63 102 197 85 342 -10 85 -18 117 -55
234 -14 41 -27 102 -30 135 -8 101 -25 161 -56 208 -55 84 -108 135 -175 168
-48 24 -72 44 -92 75 -31 49 -49 62 -94 69 -20 3 -46 19 -65 40 -42 45 -43 85
-4 144 31 46 30 63 -3 90 -11 10 -13 18 -6 31 38 71 -22 185 -117 225 -20 9
-45 34 -67 67 -68 106 -132 143 -256 151 -36 3 -105 -2 -154 -10 -65 -11 -95
-12 -112 -4 -26 11 -58 75 -69 136 -6 29 -20 52 -51 82 -36 35 -51 42 -98 48
-35 5 -74 3 -104 -5 -26 -7 -96 -18 -157 -25 -137 -16 -288 -41 -340 -57 -82
-24 -302 -119 -541 -234 -38 -19 -73 -34 -77 -34 -3 0 -54 -23 -113 -52 -120
-58 -137 -57 -142 7 -2 21 6 66 16 99 23 68 26 86 52 244 6 34 10 133 8 220
-2 230 -2 287 1 392 2 52 -1 120 -7 150 -6 30 -14 69 -17 85 -11 54 -68 166
-98 191 -15 13 -41 24 -55 25 -25 0 -25 1 -7 10 15 7 11 8 -15 3 -94 -15 -121
-16 -136 -3 -22 18 -51 86 -59 139 -13 97 -103 195 -234 256 -169 79 -161 73
-188 144 -45 120 -56 139 -100 185 -58 58 -101 72 -189 57 -63 -10 -71 -9
-147 19 -97 35 -163 37 -264 9 -90 -25 -104 -20 -174 60 -79 90 -148 140 -192
140 -30 0 -42 -7 -76 -46z"/>
<path d="M11976 9288 c7 -23 21 -38 37 -38 5 0 -1 14 -13 30 -25 36 -34 38
-24 8z"/>
<path d="M421 8104 c0 -11 3 -14 6 -6 3 7 2 16 -1 19 -3 4 -6 -2 -5 -13z"/>
<path d="M12750 4908 c0 -7 5 -20 10 -28 8 -12 10 -11 10 7 0 12 -4 25 -10 28
-5 3 -10 0 -10 -7z"/>
<path d="M762 3700 c0 -19 2 -27 5 -17 2 9 2 25 0 35 -3 9 -5 1 -5 -18z"/>
<path d="M940 3092 c0 -5 7 -15 15 -22 8 -7 15 -8 15 -2 0 5 -7 15 -15 22 -8
7 -15 8 -15 2z"/>
<path d="M6130 10 c0 -5 5 -10 10 -10 6 0 10 5 10 10 0 6 -4 10 -10 10 -5 0
-10 -4 -10 -10z"/>
</g>
</svg>
